<svg id="Layer_35" enable-background="new 0 0 64 64" height="512" viewBox="0 0 64 64" width="512" xmlns="http://www.w3.org/2000/svg"><path d="m10 32v30h-4c-2.21 0-4-1.79-4-4v-22c0-2.21 1.79-4 4-4z" fill="#aab2bd"/><path d="m62 36v22c0 2.21-1.79 4-4 4h-4v-30h4c2.21 0 4 1.79 4 4z" fill="#aab2bd"/><path d="m10 32h44v30h-44z" fill="#b4dd7f"/><path d="m42 42c4.42 0 8 3.58 8 8s-3.58 8-8 8c-2.96 0-5.54-1.61-6.92-4h-6.16c-1.38 2.39-3.96 4-6.92 4-4.42 0-8-3.58-8-8s3.58-8 8-8h10z" fill="#e6e9ed"/><circle cx="44" cy="52" fill="#ff826e" r="2"/><circle cx="38" cy="48" fill="#ff826e" r="2"/><circle cx="32" cy="18" fill="#69d6f4" r="16"/><path d="m34.83 15.17c.72.73 1.17 1.73 1.17 2.83 0 2.21-1.79 4-4 4s-4-1.79-4-4 1.79-4 4-4c1.1 0 2.1.45 2.83 1.17z" fill="#fcd770"/><path d="m50.18 5.61c-.33.25-.74.39-1.18.39-1.1 0-2-.9-2-2s.9-2 2-2 2 .9 2 2c0 .66-.32 1.25-.82 1.61z" fill="#ff826e"/><circle cx="12" cy="26" fill="#ff826e" r="2"/><path d="m5 50h2v2h-2z"/><path d="m5 46h2v2h-2z"/><path d="m5 42h2v2h-2z"/><path d="m57 43h2v8h-2z"/><path d="m58 31h-15.068c3.705-3.121 6.068-7.788 6.068-13 0-9.374-7.626-17-17-17s-17 7.626-17 17c0 5.212 2.363 9.879 6.068 13h-15.068c-2.757 0-5 2.243-5 5v22c0 2.757 2.243 5 5 5h52c2.757 0 5-2.243 5-5v-22c0-2.757-2.243-5-5-5zm-16 12c3.86 0 7 3.141 7 7s-3.14 7-7 7c-2.484 0-4.805-1.342-6.056-3.501l-.289-.499h-7.311l-.289.499c-1.25 2.159-3.571 3.501-6.055 3.501-3.86 0-7-3.141-7-7s3.14-7 7-7zm-10-39.613c.95.955 2.76 2.953 4.309 5.613h-8.618c1.549-2.66 3.359-4.658 4.309-5.613zm5.35 7.613c.831 1.814 1.443 3.843 1.595 6h-2.046c-.13-.637-.384-1.229-.732-1.753l1.54-1.54-1.414-1.414-1.54 1.54c-.791-.524-1.736-.833-2.753-.833-2.414 0-4.434 1.721-4.899 4h-2.046c.152-2.157.764-4.186 1.595-6zm9.599 6h-6.001c-.131-2.153-.659-4.171-1.406-6h5.715c.96 1.812 1.549 3.845 1.692 6zm-14.949 15.613c-.95-.956-2.76-2.954-4.309-5.613h8.618c-1.549 2.66-3.359 4.658-4.309 5.613zm-5.35-7.613c-.831-1.814-1.443-3.843-1.595-6h2.046c.465 2.279 2.484 4 4.899 4s4.434-1.721 4.899-4h2.046c-.152 2.157-.764 4.186-1.595 6zm5.057-5.293 2.992-2.992c.188.391.301.823.301 1.285 0 1.654-1.346 3-3 3s-3-1.346-3-3 1.346-3 3-3c.462 0 .894.113 1.285.301l-2.992 2.992zm9.241-.707h6.001c-.143 2.155-.732 4.188-1.693 6h-5.715c.748-1.829 1.276-3.847 1.407-6zm-17.896-2h-6.001c.143-2.155.732-4.188 1.693-6h5.715c-.748 1.829-1.276 3.847-1.407 6zm0 2c.131 2.153.659 4.171 1.406 6h-5.715c-.961-1.812-1.55-3.845-1.693-6zm2.332 8c1.268 2.428 2.798 4.405 3.997 5.756-3.807-.674-7.114-2.786-9.353-5.756zm13.232 0h5.356c-2.239 2.97-5.546 5.082-9.353 5.756 1.199-1.351 2.729-3.328 3.997-5.756zm5.356-18h-5.356c-1.268-2.428-2.798-4.405-3.997-5.756 3.807.674 7.114 2.786 9.353 5.756zm-14.591-5.756c-1.199 1.351-2.729 3.328-3.997 5.756h-5.356c2.239-2.97 5.546-5.082 9.353-5.756zm1.619 31.705v6.051h-9c-4.962 0-9 4.037-9 9s4.038 9 9 9c2.999 0 5.812-1.519 7.475-4h5.05c1.664 2.481 4.476 4 7.475 4 4.962 0 9-4.037 9-9s-4.038-9-9-9h-9v-6.051c2.517-.148 4.892-.828 7-1.958v.009h13v28h-42v-28h13v-.008c2.108 1.129 4.483 1.81 7 1.957zm-28 23.051v-22c0-1.654 1.346-3 3-3h3v28h-3c-1.654 0-3-1.346-3-3zm58 0c0 1.654-1.346 3-3 3h-3v-28h3c1.654 0 3 1.346 3 3z"/><path d="m21 45v4h-4v2h4v4h2v-4h4v-2h-4v-4z"/><path d="m38 51c1.654 0 3-1.346 3-3s-1.346-3-3-3-3 1.346-3 3 1.346 3 3 3zm0-4c.551 0 1 .448 1 1s-.449 1-1 1-1-.448-1-1 .449-1 1-1z"/><path d="m44 55c1.654 0 3-1.346 3-3s-1.346-3-3-3-3 1.346-3 3 1.346 3 3 3zm0-4c.551 0 1 .448 1 1s-.449 1-1 1-1-.448-1-1 .449-1 1-1z"/><path d="m49 7c.279 0 .545-.051.802-.123 2.088 3.334 3.198 7.152 3.198 11.123 0 3.692-.971 7.323-2.809 10.499l1.731 1.002c2.014-3.48 3.078-7.457 3.078-11.501 0-4.383-1.236-8.596-3.559-12.268.349-.49.559-1.086.559-1.732 0-1.654-1.346-3-3-3s-3 1.346-3 3 1.346 3 3 3zm0-4c.551 0 1 .448 1 1s-.449 1-1 1-1-.448-1-1 .449-1 1-1z"/><path d="m12 29c1.654 0 3-1.346 3-3s-1.346-3-3-3c-.13 0-.253.022-.379.038-.404-1.641-.621-3.33-.621-5.038 0-5.803 2.436-11.402 6.682-15.362l-1.364-1.463c-4.651 4.337-7.318 10.47-7.318 16.825 0 2.03.273 4.04.795 5.983-.489.534-.795 1.238-.795 2.017 0 1.654 1.346 3 3 3zm1-3c0 .552-.449 1-1 1s-1-.448-1-1 .449-1 1-1 1 .448 1 1z"/></svg>